<?xml version="1.0" encoding="utf-8"?>
<!-- Generator: Adobe Illustrator 16.0.0, SVG Export Plug-In . SVG Version: 6.00 Build 0)  -->
<!DOCTYPE svg PUBLIC "-//W3C//DTD SVG 1.1 Tiny//EN" "http://www.w3.org/Graphics/SVG/1.1/DTD/svg11-tiny.dtd">
<svg version="1.1" baseProfile="tiny" xmlns="http://www.w3.org/2000/svg" xmlns:xlink="http://www.w3.org/1999/xlink" x="0px"
	 y="0px" width="764px" height="526px" viewBox="0 0 764 526" xml:space="preserve">
<g id="fr">
	<g id="expanded">
		<path d="M119.631,167.544l3.456-24.769l3.582-0.57c8.015-1.276,14.827-1.038,13.271,10.187
			c-1.554,10.844-9.398,13.415-17.069,14.636L119.631,167.544 M139.358,101.213l-56.431,8.982L62.375,256.124l45.691-7.272
			l6.564-46.837l0.849-0.135l13.895,43.581l53.869-8.574l-21.222-42.977c-2.041-3.841-4.591-5.708-6.636-7.458l0.174-1.168
			c18.251-9.335,27.131-19.833,30.239-41.893C190.982,106.618,168.337,96.601,139.358,101.213"/>
		<polyline points="290.902,77.093 204.474,90.849 183.921,236.778 271.713,222.805 277.408,182.917 236.67,189.401 
			238.564,175.098 274.537,169.372 279.895,131.44 243.922,137.165 245.995,123.213 285.371,116.946 290.902,77.093 		"/>
		<polyline points="383.976,62.279 297.889,75.981 277.336,221.91 324.383,214.422 331.641,163.317 365.906,157.863 
			371.256,119.923 336.99,125.377 339.064,110.293 378.105,104.079 383.976,62.279 		"/>
		<path d="M508.59,42.445l-46.713,7.435l-11.399,81.272c-1.556,11.415-3.451,21.553-15.896,23.534
			c-12.446,1.981-11.228-8.049-9.673-19.464l11.394-81.271l-46.704,7.434l-12.096,86.31c-6.043,42.58,14.724,58.194,50.688,52.47
			c35.973-5.726,62.26-28.829,68.303-71.409L508.59,42.445"/>
		<path d="M569.44,30.487c-27.951,4.449-58.507,28.232-63.343,62.867c-3.281,22.848,10.34,32.599,28.059,33.375l9.202,0.429
			c4.087,0.3,10.223-0.115,9.19,6.489c-0.861,6.567-8.536,9.873-13.139,10.605c-10.738,1.709-19.934-2.696-27.256-8.722
			l-2.037-1.759l-20.191,43.518c13.279,6.02,31.338,8.063,47.536,5.485c27.788-4.423,58.161-26.094,63.169-60.946
			c3.457-24.769-9.138-34.494-28.225-36.374l-10.221-1.026c-3.409-0.399-9.031-0.266-8.344-5.673
			c0.867-5.999,7.008-8.678,11.097-9.329c10.062-1.602,18.401,1.799,25.555,6.719l17.964-39.377
			C597.049,30.068,584.104,28.153,569.44,30.487"/>
		<polyline points="704.111,11.325 617.683,25.082 597.13,171.011 684.922,157.038 690.617,117.15 649.879,123.634 651.774,109.33 
			687.747,103.604 693.104,65.672 657.131,71.397 659.204,57.446 698.58,51.179 704.111,11.325 		"/>
		<polyline points="151.88,342.971 106.874,350.134 99.963,399.291 71.326,403.849 78.229,354.693 33.231,361.855 12.68,507.784 
			57.686,500.621 64.764,449.925 93.399,445.367 86.321,496.063 131.327,488.9 151.88,342.971 		"/>
		<path d="M202.846,425.864l14.91-45.883l1.705-0.271c-0.012,6.052-0.194,12.322,0.309,18.3l1.822,24.871L202.846,425.864
			 M250.748,327.234l-51.657,8.222l-65.217,153.038l49.438-7.869l6.34-18.797l35.287-5.616l1.673,17.522l49.438-7.869
			L250.748,327.234"/>
		<path d="M407.58,302.273l-46.712,7.435l-11.401,81.282c-1.555,11.405-3.45,21.552-15.895,23.533
			c-12.445,1.98-11.229-8.058-9.674-19.463l11.394-81.28l-46.703,7.434l-12.096,86.31c-6.043,42.588,14.724,58.204,50.688,52.479
			c35.971-5.725,62.26-28.83,68.303-71.418L407.58,302.273"/>
		<path d="M468.431,290.323c-27.95,4.449-58.507,28.232-63.343,62.866c-3.281,22.848,10.34,32.599,28.059,33.375l9.201,0.429
			c4.096,0.291,10.23-0.116,9.191,6.48c-0.861,6.567-8.536,9.872-13.139,10.604c-10.739,1.709-19.934-2.696-27.257-8.713
			l-2.036-1.759l-20.191,43.509c13.279,6.028,31.338,8.072,47.537,5.494c27.787-4.423,58.16-26.094,63.168-60.955
			c3.455-24.76-9.139-34.493-28.225-36.374l-10.221-1.018c-3.41-0.408-9.031-0.266-8.344-5.673
			c0.867-6.007,7.008-8.687,11.096-9.337c10.063-1.602,18.402,1.808,25.556,6.719l17.965-39.377
			C496.039,289.896,483.096,287.989,468.431,290.323"/>
		<path d="M567.819,274.504c-27.958,4.45-58.514,28.233-63.351,62.868c-3.273,22.847,10.34,32.599,28.059,33.375l9.203,0.428
			c4.094,0.291,10.229-0.116,9.189,6.48c-0.861,6.567-8.536,9.872-13.139,10.604c-10.739,1.709-19.934-2.696-27.248-8.714
			l-2.045-1.757l-20.19,43.509c13.278,6.029,31.337,8.072,47.536,5.494c27.787-4.423,58.16-26.094,63.168-60.955
			c3.457-24.76-9.138-34.493-28.217-36.375l-10.229-1.017c-3.41-0.408-9.031-0.265-8.336-5.674c0.86-6.006,7-8.686,11.088-9.336
			c10.063-1.601,18.402,1.808,25.556,6.72l17.965-39.378C595.428,274.077,582.477,272.171,567.819,274.504"/>
		<polyline points="702.484,255.335 616.053,269.092 595.5,415.021 683.293,401.048 688.988,361.168 648.251,367.652 
			650.146,353.348 686.117,347.623 691.475,309.69 655.502,315.416 657.576,301.464 696.951,295.197 702.484,255.335 		"/>
		<path d="M717.529,353.367c-11.627,1.851-25.015,12.288-26.955,26.729c-2.091,14.292,8.875,20.498,20.502,18.647
			c11.621-1.85,24.852-11.907,26.948-26.2C739.959,358.104,729.148,351.518,717.529,353.367 M752.9,248.071l-42.039,6.691
			l-13.057,93.083l42.029-6.689L752.9,248.071"/>
		<polyline points="381.314,212.785 320.117,222.525 316.029,252.071 332.174,248.672 323.354,310.916 352.466,306.282 
			361.286,244.038 377.219,242.332 381.314,212.785 		"/>
		<path d="M403.412,265.986l9.294-28.602l1.06-0.169c-0.008,3.778-0.115,7.686,0.196,11.413l1.14,15.498L403.412,265.986
			 M433.268,204.517l-32.195,5.124l-40.64,95.374l30.81-4.904l3.953-11.71l21.993-3.5l1.038,10.916l30.809-4.904L433.268,204.517"/>
	</g>
</g>
</svg>
