<?xml version="1.0" encoding="utf-8"?>
<!-- Generator: Adobe Illustrator 16.0.0, SVG Export Plug-In . SVG Version: 6.00 Build 0)  -->
<!DOCTYPE svg PUBLIC "-//W3C//DTD SVG 1.1 Tiny//EN" "http://www.w3.org/Graphics/SVG/1.1/DTD/svg11-tiny.dtd">
<svg version="1.1" baseProfile="tiny" xmlns="http://www.w3.org/2000/svg" xmlns:xlink="http://www.w3.org/1999/xlink" x="0px"
	 y="0px" width="670px" height="626px" viewBox="0 0 670 626" xml:space="preserve">
<g id="en">
	<g id="expanded_1_">
		<path d="M72.517,171.262l3.456-24.769l3.575-0.569c8.014-1.275,14.833-1.039,13.278,10.186
			c-1.554,10.844-9.398,13.415-17.069,14.636L72.517,171.262 M92.236,104.932l-56.423,8.98L15.261,259.833l45.684-7.271
			l6.564-46.829l0.857-0.136l13.894,43.572l53.869-8.574l-21.223-42.968c-2.039-3.842-4.598-5.708-6.635-7.458l0.174-1.168
			c18.252-9.335,27.131-19.833,30.239-41.893C143.867,110.336,121.215,100.319,92.236,104.932"/>
		<polyline points="243.781,80.812 157.352,94.568 136.799,240.489 224.599,226.515 230.294,186.635 189.548,193.12 
			191.451,178.815 227.423,173.09 232.771,135.159 196.808,140.883 198.873,126.932 238.257,120.664 243.781,80.812 		"/>
		<polyline points="336.861,65.997 250.767,79.7 230.214,225.621 277.269,218.131 284.518,167.036 318.785,161.583 324.143,123.641 
			289.875,129.095 291.951,114.011 330.984,107.798 336.861,65.997 		"/>
		<path d="M461.467,46.164l-46.711,7.435l-11.394,81.272c-1.555,11.415-3.45,21.552-15.896,23.533
			c-12.444,1.981-11.234-8.047-9.68-19.462l11.401-81.273l-46.712,7.435l-12.088,86.309c-6.043,42.579,14.716,58.196,50.688,52.47
			c35.973-5.726,62.261-28.83,68.304-71.409L461.467,46.164"/>
		<path d="M522.326,34.205c-27.958,4.45-58.506,28.231-63.344,62.866c-3.281,22.848,10.333,32.6,28.06,33.375l9.202,0.428
			c4.087,0.292,10.223-0.114,9.19,6.48c-0.869,6.578-8.544,9.874-13.146,10.606c-10.74,1.709-19.935-2.688-27.25-8.714l-2.044-1.758
			l-20.19,43.518c13.286,6.019,31.345,8.063,47.544,5.484c27.779-4.421,58.159-26.094,63.168-60.946
			c3.448-24.768-9.138-34.494-28.226-36.373l-10.22-1.027c-3.41-0.399-9.031-0.265-8.344-5.673
			c0.868-5.999,7.008-8.678,11.096-9.329c10.055-1.6,18.402,1.799,25.548,6.712l17.973-39.37
			C549.935,33.786,536.99,31.871,522.326,34.205"/>
		<polyline points="656.99,15.044 570.56,28.801 550.008,174.722 637.8,160.748 643.504,120.868 602.758,127.353 604.66,113.048 
			640.632,107.322 645.981,69.391 610.017,75.115 612.083,61.165 651.466,54.896 656.99,15.044 		"/>
		<path d="M266.885,225.299l-32.725,5.208l-7.886,16.113c-1.383,2.934-2.564,5.948-3.839,8.986l-0.85,0.135l-5.588-22.344
			l-32.934,5.242l20.621,47.299l-5.491,39.198l28.472-4.532l5.492-39.198L266.885,225.299"/>
		<path d="M290.25,283.837c-8.816,1.403-14.014-4.727-12.507-15.105c1.294-9.636,8.217-18.638,17.453-20.108
			c9.244-1.471,13.801,5.703,12.507,15.339C306.197,274.342,299.065,282.435,290.25,283.837 M299.394,218.715
			c-24.321,3.871-46.877,25.612-50.971,54.208c-4.088,29.182,13.302,43.511,37.732,39.623c24.438-3.89,46.782-24.543,50.87-53.725
			C341.111,230.227,323.724,214.843,299.394,218.715"/>
		<path d="M421.146,200.746l-29.111,4.633l-7.101,50.656c-0.971,7.104-2.15,13.428-9.907,14.663
			c-7.756,1.235-6.998-5.023-6.034-12.125l7.108-50.657l-29.111,4.633l-7.534,53.785c-3.763,26.537,9.174,36.268,31.587,32.701
			c22.422-3.569,38.798-17.965,42.568-44.503L421.146,200.746"/>
		<path d="M448.378,235.791l2.154-15.434l2.228-0.354c4.991-0.794,9.242-0.642,8.272,6.35c-0.971,6.758-5.855,8.356-10.638,9.118
			L448.378,235.791 M460.67,194.455l-35.169,5.598l-12.806,90.943l28.473-4.532l4.088-29.182l0.528-0.084l8.662,27.153l33.573-5.344
			l-13.231-26.78c-1.266-2.391-2.859-3.555-4.134-4.649l0.11-0.726c11.378-5.822,16.909-12.364,18.851-26.112
			C492.842,197.822,478.73,191.581,460.67,194.455"/>
		<path d="M171.591,391.983l3.212-23.027l3.333-0.53c7.453-1.187,13.79-0.967,12.346,9.47c-1.451,10.076-8.743,12.472-15.876,13.608
			L171.591,391.983 M189.932,330.307l-52.468,8.351l-19.108,135.682l42.483-6.762l6.1-43.539l0.794-0.126l12.919,40.512
			l50.092-7.973l-19.74-39.954c-1.894-3.57-4.265-5.302-6.161-6.936l0.158-1.08c16.973-8.683,25.228-18.441,28.123-38.963
			C237.936,335.329,216.878,326.018,189.932,330.307"/>
		<polyline points="330.846,307.878 250.482,320.669 231.374,456.351 313.006,443.358 318.299,406.283 280.419,412.312 
			282.188,399.005 315.629,393.683 320.607,358.412 287.166,363.734 289.09,350.766 325.708,344.938 330.846,307.878 		"/>
		<path d="M456.542,287.873l-41.533,6.61l-5.618,40.653c-1.766,11.535-1.468,22.922-1.333,33.99l-1.269,0.202l-28.391-69.019
			l-41.688,6.635l-19.108,135.682l41.524-6.609l6.264-44.093c1.286-9.003,1.138-17.597,1.155-26.753l1.27-0.202l28.086,65.195
			l41.533-6.61L456.542,287.873"/>
		<polyline points="552.278,272.635 460.973,287.167 454.873,331.234 478.972,326.17 465.805,419.039 509.229,412.127 
			522.404,319.258 546.179,316.701 552.278,272.635 		"/>
		<polyline points="227.195,463.836 185.351,470.496 178.928,516.205 152.293,520.444 158.723,474.734 116.872,481.395 
			97.762,617.086 139.614,610.425 146.195,563.282 172.822,559.044 166.242,606.187 208.086,599.526 227.195,463.836 		"/>
		<polyline points="282.948,454.962 239.515,461.875 220.406,597.565 263.84,590.652 282.948,454.962 		"/>
		<path d="M414.299,434.056l-47.391,7.542l-27.024,46.878c-3.023,5.226-6.357,10.511-8.111,16.244l-0.958,0.153l9.148-58.986
			l-42.327,6.737l-19.108,135.69l42.327-6.737l7.073-56.72l0.95-0.151c0.153,5.43,3.313,9.853,5.05,14.677l14.823,37.754
			l50.403-8.022l-31.571-63.059L414.299,434.056"/>
		<polyline points="507.628,419.201 427.265,431.992 408.148,567.684 489.789,554.69 495.082,517.606 457.202,523.635 
			458.971,510.337 492.412,505.014 497.39,469.735 463.948,475.058 465.872,462.089 502.483,456.262 507.628,419.201 		"/>
	</g>
</g>
</svg>
