<?xml version="1.0" encoding="utf-8"?>
<!DOCTYPE svg PUBLIC "-//W3C//DTD SVG 1.1 Tiny//EN" "http://www.w3.org/Graphics/SVG/1.1/DTD/svg11-tiny.dtd">
<svg version="1.1" baseProfile="tiny" id="Layer_3" xmlns="http://www.w3.org/2000/svg" xmlns:xlink="http://www.w3.org/1999/xlink"
	 x="0px" y="0px" width="269.611px" height="179.859px" viewBox="0 0 269.611 179.859" xml:space="preserve">
<polygon points="90.525,90.619 89.925,93.623 18.125,93.623 18.725,90.619 "/>
<polygon points="78.359,150.322 77.758,153.326 5.958,153.326 6.559,150.322 "/>
<g id="ile">
	<path d="M132.175,133.437l-6.062,19.889h-40.82l0.189-1.231l4.262-0.757l12.597-59.858l-5.02-0.663l0.189-1.137h18.563l0.757,0.758
		l-12.786,60.805l9.187,0.568l17.711-18.374H132.175z"/>
	<path d="M121.848,110.327c4.357-2.178,8.24-4.735,10.703-8.05l-1.705-1.895c-3.315-3.599-4.641-6.819-2.652-10.039
		c1.516-2.557,5.209-3.599,8.145-2.084c3.504,1.989,3.504,7.104,0.474,11.934c-2.557,4.641-8.05,8.713-14.491,11.271
		L121.848,110.327z"/>
	<path d="M162.572,90.343l-12.881,61.089l4.925,0.663l-0.189,1.231h-24.53l0.189-1.231l5.398-0.757l12.597-59.763l-5.02-0.757
		l0.189-1.137h18.658L162.572,90.343z M170.434,85.323l-1.042,1.042l-11.744-4.641l-15.154,4.641l-0.947-1.042l16.48-12.596h1.989
		L170.434,85.323z"/>
	<path d="M205.663,133.437l-6.062,19.889h-40.82l0.189-1.231l4.262-0.757l12.597-59.858l-5.02-0.663l0.189-1.137h18.563l0.757,0.758
		l-12.786,60.805l9.187,0.568l17.711-18.374H205.663z"/>
	<path d="M248.278,106.443h-1.137c-1.989-5.683-4.167-10.513-7.103-15.532h-8.335l-5.872,27.845l14.491-0.284l-0.378,2.083
		l-14.396-0.474l-6.63,31.255l8.903,0.757c6.156-5.398,11.839-11.365,17.427-17.616h1.136l-5.683,18.848H205.09l-0.663-0.758
		l12.881-60.994l-5.02-0.757l0.189-1.137h41.483L248.278,106.443z"/>
</g>
<g id="de">
	<path d="M41.427,140.791l3.553,0.374l-0.437,1.995l-9.849,1.06l-1.184-1.247l3.553-15.521h-0.499
		c-3.678,6.607-7.23,12.466-9.662,15.646c-0.81,1.122-2.805,1.184-4.176,0.623c-3.553-1.371-5.921-2.68-5.921-6.108
		c0-11.095,7.979-23.686,17.017-23.686c1.746,0,3.615,0.312,5.735,0.997l2.618-12.404l-4.737-0.811l0.437-1.932l11.469-1.309
		l0.873,1.122L41.427,140.791z M38.31,120.72c-2.618-1.496-5.859-2.431-8.352-2.618c-2.805,2.68-5.423,10.472-5.423,16.954
		c0,1.06,0.998,1.808,2.681,2.493C28.462,138.048,32.451,131.254,38.31,120.72z"/>
	<path d="M59.07,132.438c-0.125,0.935-0.187,1.87-0.187,2.743c0,1.746,3.303,3.615,6.794,3.615c1.87,0,4.176-1.434,6.607-4.176
		l1.558,0.811c-2.992,4.426-7.729,8.727-12.404,8.727c-5.236,0-10.41-2.743-10.41-6.732c0-13.526,7.542-23.437,18.076-23.437
		c4.176,0,7.293,2.992,7.417,8.914v0.811L59.07,132.438z M59.444,130.07l10.285-5.111v-1.122c0-4.176-1.434-6.856-3.802-6.856
		C63.745,116.98,60.69,123.836,59.444,130.07z"/>
</g>
<g id="coeur-mod">
	<path d="M26.89,63.499c0-31.176,14.302-61.528,36.115-61.528c8.643,0,18.829,2.572,24.385,6.791L79.672,23.68h-0.72
		c-8.231-10.701-15.948-20.064-17.8-20.064c-6.894,0-17.08,40.848-17.08,51.651c0,2.264,8.025,6.791,17.491,6.791
		c8.231,0,11.936-3.601,15.845-10.186l1.132,0.72c-5.762,11.215-11.626,21.195-25.825,21.195
		C39.237,73.788,26.89,68.128,26.89,63.499z"/>
	<path d="M215.375,15.346l-6.379,29.632c-3.807,17.8-12.45,28.398-27.574,28.398c-17.08,0-23.768-9.98-22.019-18.623l10.495-49.387
		l-5.453-0.72l0.206-1.235h20.27l0.72,0.823l-10.083,47.535c-1.338,6.07,3.189,11.009,12.552,11.009
		c9.569,0,16.154-3.396,19.241-17.8l3.91-18.314l-9.877-22.636l12.553-1.646C215.787,5.366,216.404,10.51,215.375,15.346z"/>
	<path d="M258.333,70.289l3.91,0.103l-0.103,1.235l-19.138,2.058l-8.128-35.292h-4.733l-6.791,32.102l7.305,0.823l-0.206,1.235
		h-22.739l-0.617-0.72L221.19,5.16l-5.453-0.72l0.206-1.234h29.324c15.537,0.206,20.578,4.527,20.578,6.482
		c0,8.54-5.042,22.944-22.43,27.78l6.894-0.617L258.333,70.289z M230.45,37.056h8.437c4.733-1.235,10.7-20.578,10.7-28.397
		c0-1.646-4.218-3.807-8.334-4.116h-3.91L230.45,37.056z"/>
	<path d="M157.659,52.078h-1.234c-6.071,6.791-12.244,13.273-18.932,19.138l-9.672-0.823l7.202-33.954l15.742,0.514l0.309-2.264
		l-15.742,0.309l6.379-30.25h9.054c3.19,5.453,5.556,10.701,7.717,16.874h1.338l6.07-18.211h-39.304l-0.206,0.823
		c-4.527-1.338-9.877-2.161-14.507-2.161c-21.813,0-35.703,31.278-35.703,61.219c0,5.968,14.713,10.598,25.826,10.598
		c3.601,0,6.996-0.823,10.186-2.366l-0.103,0.206l0.72,0.823h35.083l4.683-3.579L157.659,52.078z M104.157,72.038
		c-3.704,0-12.553-2.778-12.553-5.967c0-19.343,11.112-62.146,18.006-62.146c3.807,0,12.552,2.675,12.552,5.967
		C122.162,29.236,111.153,72.038,104.157,72.038z"/>
</g>
<g id="antigentrification">
	<path d="M18.264,176.599l-0.205,1.022l-4.856,0.537l-0.435-0.511l0.205-5.47H8.143l-2.07,3.757
		c-1.073,1.968-2.632,2.198-3.527,2.224l0.945-4.166c0.946-0.179,1.764-0.358,2.633-0.511l5.776-10.53l-1.866-0.23l0.179-1.022
		l7.156-0.153l-0.537,14.85L18.264,176.599z M13.025,171.002l0.307-7.872l-0.23-0.026l-4.319,7.898H13.025z"/>
	<path d="M36.406,165.251l-2.249,0.281L31.55,177.8l-2.914,0.307l-4.703-14.466l-2.428,11.833c-0.409,1.968-2.198,2.658-3.834,2.658
		l0.792-3.757l2.249-0.281l2.326-11.041l-2.096-0.333l0.205-1.022h6.134l0.639,0.716l3.527,11.042l1.917-9.304
		c0.409-1.968,2.198-2.658,3.834-2.658L36.406,165.251z"/>
	<path d="M50.28,166.605h-1.022l-1.431-3.833l-1.278-0.077l-2.939,13.725l1.712,0.358l-0.205,1.022H39.75l-0.435-0.511l3.118-14.594
		l-1.38,0.077l-3.093,3.833h-1.022l1.074-4.907h13.443L50.28,166.605z"/>
	<path d="M55.029,176.446l1.457,0.332l-0.204,1.022H49.1l0.205-1.022l1.636-0.383l2.811-13.341l-1.482-0.333l0.204-1.022h5.137
		l0.435,0.511L55.029,176.446z"/>
	<path d="M71.87,169.852l0.435,0.435l-1.815,8.102h-0.971l-1.457-1.661h-0.383c-1.38,0.997-2.965,1.457-4.856,1.457
		c-2.504,0-4.779-1.278-4.779-3.655c0-6.415,4.115-13.214,9.866-13.214c2.019,0,3.859,0.46,5.137,1.176l-1.815,3.22l-0.435,0.051
		c-2.734-1.814-4.447-2.939-4.984-2.939c-1.125,0-3.476,7.642-3.476,11.092c0,1.303,2.172,1.661,4.14,1.661
		c0.23,0,0.486-0.025,0.69-0.051l0.92-4.243l-1.968-0.409l0.204-1.022H71.87z"/>
	<path d="M79.814,162.823l-1.252,5.853l3.757-0.051l-0.23,1.252l-3.757-0.102l-1.406,6.62l2.684,0.358l3.527-3.578h0.971
		l-1.354,4.626h-9.687l-0.435-0.511l3.016-14.236l-1.482-0.333l0.204-1.022h11.783l-1.508,4.371h-0.945
		c-0.383-1.073-0.792-2.147-1.176-3.246H79.814z"/>
	<path d="M102.582,165.251l-2.249,0.281L97.726,177.8l-2.914,0.307l-4.703-14.466l-2.428,11.833
		c-0.409,1.968-2.198,2.658-3.834,2.658l0.792-3.757l2.249-0.281l2.326-11.041l-2.096-0.333l0.205-1.022h6.134l0.639,0.716
		l3.527,11.042l1.917-9.304c0.409-1.968,2.198-2.658,3.834-2.658L102.582,165.251z"/>
	<path d="M116.456,166.605h-1.022l-1.431-3.833l-1.278-0.077l-2.939,13.725l1.712,0.358l-0.205,1.022h-5.367l-0.435-0.511
		l3.118-14.594l-1.38,0.077l-3.093,3.833h-1.022l1.074-4.907h13.443L116.456,166.605z"/>
	<path d="M129.538,176.216l1.533,0.23l-0.205,1.022l-4.984,0.639l-2.53-7.156h-1.508l-1.15,5.444l1.968,0.383l-0.205,1.022h-5.597
		l-0.435-0.511l2.99-14.236l-1.482-0.333l0.204-1.022h9.866c2.352,0.154,3.195,1.38,3.195,2.275c0,2.045-1.201,4.831-3.987,6.288
		L129.538,176.216z M122.074,169.826h2.172c1.074-0.103,2.633-3.604,2.633-5.598c0-0.664-0.588-1.252-1.712-1.405h-1.584
		L122.074,169.826z"/>
	<path d="M136.894,176.446l1.457,0.332l-0.204,1.022h-7.182l0.205-1.022l1.636-0.383l2.811-13.341l-1.482-0.333l0.204-1.022h5.137
		l0.435,0.511L136.894,176.446z"/>
	<path d="M151.562,166.095h-0.946c-0.383-1.099-0.767-2.198-1.176-3.271h-2.862l-1.406,6.594l4.217-0.102l-0.23,1.252l-4.217-0.077
		l-1.252,5.878l1.968,0.409l-0.205,1.022h-5.623l-0.435-0.511l3.016-14.236l-1.482-0.333l0.204-1.022h11.961L151.562,166.095z"/>
	<path d="M156.44,176.446l1.457,0.332l-0.204,1.022h-7.182l0.205-1.022l1.636-0.383l2.812-13.341l-1.482-0.333l0.204-1.022h5.137
		l0.435,0.511L156.44,176.446z"/>
	<path d="M158.942,174.58c0-6.518,4.013-13.265,9.866-13.265c2.019,0,3.859,0.46,5.137,1.176l-1.815,3.22l-0.435,0.051
		c-2.734-1.814-4.447-2.939-4.984-2.939c-1.125,0-3.476,7.565-3.476,11.092c0,1.303,2.096,1.661,4.063,1.661
		c1.789,0,3.042-1.176,4.243-2.786l0.844,0.639c-2.122,3.501-5.188,4.754-7.463,4.754
		C161.141,178.184,158.942,176.957,158.942,174.58z"/>
	<path d="M186.822,176.599l-0.205,1.022l-4.856,0.537l-0.435-0.511l0.205-5.47h-4.831l-2.07,3.757
		c-1.073,1.968-2.632,2.198-3.527,2.224l0.945-4.166c0.946-0.179,1.764-0.358,2.633-0.511l5.776-10.53l-1.866-0.23l0.179-1.022
		l7.156-0.153l-0.537,14.85L186.822,176.599z M181.583,171.002l0.307-7.872l-0.23-0.026l-4.319,7.898H181.583z"/>
	<path d="M200.492,166.605h-1.022l-1.431-3.833l-1.278-0.077l-2.939,13.725l1.712,0.358l-0.205,1.022h-5.367l-0.435-0.511
		l3.118-14.594l-1.38,0.077l-3.093,3.833h-1.022l1.074-4.907h13.443L200.492,166.605z"/>
	<path d="M205.241,176.446l1.457,0.332l-0.204,1.022h-7.182l0.205-1.022l1.636-0.383l2.811-13.341l-1.482-0.333l0.204-1.022h5.137
		l0.435,0.511L205.241,176.446z"/>
	<path d="M207.744,174.58c0-6.594,4.064-13.265,9.84-13.265c3.093,0,6.006,0.92,6.006,3.604c0,6.594-4.089,13.265-9.866,13.265
		C210.632,178.184,207.744,177.264,207.744,174.58z M219.296,165.251c0-1.687-1.687-2.428-3.731-2.428
		c-1.176,0-3.527,7.412-3.527,11.424c0,1.687,1.687,2.428,3.731,2.428C216.945,176.676,219.296,169.264,219.296,165.251z"/>
	<path d="M240.02,165.251l-2.249,0.281l-2.607,12.268l-2.914,0.307l-4.703-14.466l-2.428,11.833
		c-0.409,1.968-2.198,2.658-3.834,2.658l0.792-3.757l2.249-0.281l2.326-11.041l-2.096-0.333l0.205-1.022h6.134l0.639,0.716
		l3.527,11.042l1.917-9.304c0.409-1.968,2.198-2.658,3.834-2.658L240.02,165.251z"/>
</g>
</svg>
